<svg height="512" viewBox="0 0 64 64" width="512" xmlns="http://www.w3.org/2000/svg"><g id="_28-willow_tree" data-name="28-willow tree"><path d="m27.5 45a2.5 2.5 0 0 1 -1.5-.5v4.26a2 2 0 0 0 1.11 1.79l2.89 1.45v-9.5a2.492 2.492 0 0 1 -2.5 2.5z" fill="none"/><path d="m39.41 37.41a1.813 1.813 0 0 1 -.41.32v4.77a2.5 2.5 0 0 1 -2.5 2.5 2.734 2.734 0 0 1 -.5-.05v8.05l2.34-1.17a3 3 0 0 0 1.66-2.68v-13.15a1.955 1.955 0 0 1 -.59 1.41z" fill="none"/><path d="m43 39.73a2 2 0 0 1 -3-1.73v11.15a3 3 0 0 1 -1.66 2.68l-2.34 1.17v5l3.98-2.27a6 6 0 0 0 3.02-5.21z" fill="#752d25"/><path d="m27.11 50.55a2 2 0 0 1 -1.11-1.79v-4.26a2.491 2.491 0 0 1 -1-2v-1.5a2.006 2.006 0 0 1 -2 2v6.04a6.033 6.033 0 0 0 3.64 5.52l3.36 1.44v-4z" fill="#752d25"/><path d="m36 45v-.05a2.49 2.49 0 0 1 -2-2.45v-1.5a2.006 2.006 0 0 1 -2-2 2.006 2.006 0 0 1 -2 2v17l-1.71 1.71a1.009 1.009 0 0 0 -.29.7v1.59a1 1 0 0 0 1 1h8a1 1 0 0 0 1-1v-1.59a1.009 1.009 0 0 0 -.29-.7l-1.71-1.71z" fill="#92563a"/><path d="m9 41.73a1.813 1.813 0 0 1 -.41-.32 1.955 1.955 0 0 1 -.59-1.41v-4a1.955 1.955 0 0 1 -.59 1.41 1.925 1.925 0 0 1 -1.06.56v.03a3.991 3.991 0 0 0 -1.35 3v15a2.006 2.006 0 0 0 2 2 2.015 2.015 0 0 0 2-2z" fill="#4c6d00"/><path d="m17 36.73a1.813 1.813 0 0 1 -.41-.32 1.955 1.955 0 0 1 -.59-1.41v4a2 2 0 0 1 -3 1.73v8.27a2.015 2.015 0 0 0 2 2 2.006 2.006 0 0 0 2-2z" fill="#2b3d00"/><path d="m25 41v-3.27a1.813 1.813 0 0 1 -.41-.32 1.955 1.955 0 0 1 -.59-1.41v2a2 2 0 0 1 -3 1.73v1.27a2.015 2.015 0 0 0 2 2 2.006 2.006 0 0 0 2-2z" fill="#2b3d00"/><path d="m47 36.73a2 2 0 0 1 -3-1.73v3a1.955 1.955 0 0 1 -.59 1.41 1.813 1.813 0 0 1 -.41.32v4.27a2.006 2.006 0 0 0 2 2 2.015 2.015 0 0 0 2-2z" fill="#3c5619"/><path d="m55 41.73a2 2 0 0 1 -3-1.73v-1a1.955 1.955 0 0 1 -.59 1.41 1.813 1.813 0 0 1 -.41.32v12.27a2.006 2.006 0 0 0 2 2 2.015 2.015 0 0 0 2-2z" fill="#3c5619"/><path d="m5 41a3.991 3.991 0 0 1 1.35-3v-.03a1.983 1.983 0 0 1 -.35.03h-1a4 4 0 0 0 -4 4v8a1.955 1.955 0 0 0 .59 1.41 1.955 1.955 0 0 0 1.41.59 2.006 2.006 0 0 0 2-2z" fill="#6d9e00"/><path d="m13 40.73a1.813 1.813 0 0 1 -.41-.32 1.955 1.955 0 0 1 -.59-1.41v1a2 2 0 0 1 -3 1.73v11.27a2.015 2.015 0 0 0 2 2 2.006 2.006 0 0 0 2-2z" fill="#324d11"/><path d="m21 39.73a1.813 1.813 0 0 1 -.41-.32 1.955 1.955 0 0 1 -.59-1.41v-3a2 2 0 0 1 -3 1.73v7.27a2.015 2.015 0 0 0 2 2 2.006 2.006 0 0 0 2-2z" fill="#1f2b00"/><path d="m28 39v-3a2 2 0 0 1 -3 1.73v4.77a2.5 2.5 0 1 0 5 0v-1.5a2.015 2.015 0 0 1 -2-2z" fill="#3c5619"/><path d="m39 42.5v-4.77a2 2 0 0 1 -3-1.73v3a2.015 2.015 0 0 1 -2 2v1.5a2.49 2.49 0 0 0 2 2.45 2.734 2.734 0 0 0 .5.05 2.5 2.5 0 0 0 2.5-2.5z" fill="#2b3d00"/><path d="m51 40.73a2 2 0 0 1 -3-1.73v-4a1.955 1.955 0 0 1 -.59 1.41 1.813 1.813 0 0 1 -.41.32v12.27a2.006 2.006 0 0 0 2 2 2.015 2.015 0 0 0 2-2z" fill="#2b3d00"/><path d="m59 41a4.007 4.007 0 0 0 -1.35-3v-.03a1.925 1.925 0 0 1 -1.06-.56 1.955 1.955 0 0 1 -.59-1.41v4a1.955 1.955 0 0 1 -.59 1.41 1.813 1.813 0 0 1 -.41.32v14.27a2.015 2.015 0 0 0 2 2 2.006 2.006 0 0 0 2-2z" fill="#2b3d00"/><path d="m59 38h-1a1.983 1.983 0 0 1 -.35-.03v.03a4.007 4.007 0 0 1 1.35 3v9a2.006 2.006 0 0 0 2 2 2.015 2.015 0 0 0 2-2v-8a4 4 0 0 0 -4-4z" fill="#8eb33c"/><path d="m54 26a2.015 2.015 0 0 1 -2-2v16a2 2 0 0 0 3 1.73 1.813 1.813 0 0 0 .41-.32 1.955 1.955 0 0 0 .59-1.41v-16a2.006 2.006 0 0 1 -2 2z" fill="#537500"/><path d="m48 20v-2a2.006 2.006 0 0 1 -2 2 2.015 2.015 0 0 1 -2-2v17a2 2 0 0 0 3 1.73 1.813 1.813 0 0 0 .41-.32 1.955 1.955 0 0 0 .59-1.41z" fill="#537500"/><path d="m38 38a2 2 0 0 0 1-.27 1.813 1.813 0 0 0 .41-.32 1.955 1.955 0 0 0 .59-1.41v-11a2.015 2.015 0 0 1 -2 2 2.006 2.006 0 0 1 -2-2v11a2.006 2.006 0 0 0 2 2z" fill="#4c6d00"/><path d="m32.24 22.95a2.028 2.028 0 0 1 -.24-.95 2.015 2.015 0 0 1 -2 2 2.006 2.006 0 0 1 -2-2v17a2.015 2.015 0 0 0 2 2 2.006 2.006 0 0 0 2-2v-16z" fill="#4c6d00"/><path d="m24 24v-2a2.015 2.015 0 0 1 -2 2 2.006 2.006 0 0 1 -2-2v16a1.955 1.955 0 0 0 .59 1.41 1.813 1.813 0 0 0 .41.32 2 2 0 0 0 3-1.73z" fill="#4c6d00"/><path d="m16 20a2.015 2.015 0 0 1 -2 2 2.006 2.006 0 0 1 -2-2v19a1.955 1.955 0 0 0 .59 1.41 1.813 1.813 0 0 0 .41.32 2 2 0 0 0 3-1.73z" fill="#4c6d00"/><path d="m8 36v4a1.955 1.955 0 0 0 .59 1.41 1.813 1.813 0 0 0 .41.32 2 2 0 0 0 3-1.73v-16a2.015 2.015 0 0 1 -2 2 2.006 2.006 0 0 1 -2-2z" fill="#6d9e00"/><path d="m7.41 37.41a1.955 1.955 0 0 0 .59-1.41v-10a4 4 0 0 0 -4 4v6a2.006 2.006 0 0 0 2 2 1.983 1.983 0 0 0 .35-.03 1.925 1.925 0 0 0 1.06-.56z" fill="#8eb33c"/><path d="m20 19v-1a2.015 2.015 0 0 1 -2 2 2.006 2.006 0 0 1 -2-2v17a1.955 1.955 0 0 0 .59 1.41 1.813 1.813 0 0 0 .41.32 2 2 0 0 0 3-1.73z" fill="#6d9e00"/><path d="m28 36v-11a2.006 2.006 0 0 1 -2 2 2.015 2.015 0 0 1 -2-2v11a1.955 1.955 0 0 0 .59 1.41 1.813 1.813 0 0 0 .41.32 2 2 0 0 0 3-1.73z" fill="#6d9e00"/><path d="m36 39v-17a2.006 2.006 0 0 1 -2 2 1.955 1.955 0 0 1 -1.41-.59 1.752 1.752 0 0 1 -.35-.46l-.24.05v16a2.006 2.006 0 0 0 2 2 2.015 2.015 0 0 0 2-2z" fill="#6d9e00"/><path d="m42 24a2.015 2.015 0 0 1 -2-2v16a2 2 0 0 0 3 1.73 1.813 1.813 0 0 0 .41-.32 1.955 1.955 0 0 0 .59-1.41v-16a2.006 2.006 0 0 1 -2 2z" fill="#6d9e00"/><path d="m52 23v-3a2.006 2.006 0 0 1 -2 2 2.015 2.015 0 0 1 -2-2v19a2 2 0 0 0 3 1.73 1.813 1.813 0 0 0 .41-.32 1.955 1.955 0 0 0 .59-1.41z" fill="#405c00"/><path d="m56 36a1.955 1.955 0 0 0 .59 1.41 1.925 1.925 0 0 0 1.06.56 1.983 1.983 0 0 0 .35.03 2.006 2.006 0 0 0 2-2v-6a4 4 0 0 0 -4-4z" fill="#acd949"/><g fill="#6d9e00"><path d="m10 26a2.015 2.015 0 0 0 2-2v-12a4 4 0 0 0 -4 4v8a2.006 2.006 0 0 0 2 2z"/><path d="m16 14v4a2.006 2.006 0 0 0 2 2 2.015 2.015 0 0 0 2-2v-11a3.906 3.906 0 0 1 .12-.97l-.12-.03a4 4 0 0 0 -4 4z"/><path d="m24 7v18a2.015 2.015 0 0 0 2 2 2.006 2.006 0 0 0 2-2v-20a3.989 3.989 0 0 1 .54-2h-.54a3.906 3.906 0 0 0 -.97.12 4 4 0 0 0 -3.03 3.88z"/><path d="m32 22a2.028 2.028 0 0 0 .24.95 1.752 1.752 0 0 0 .35.46 1.955 1.955 0 0 0 1.41.59 2.006 2.006 0 0 0 2-2v-17a4.01 4.01 0 0 0 -4-4z"/><path d="m40 7v15a2.015 2.015 0 0 0 2 2 2.006 2.006 0 0 0 2-2v-15a3.906 3.906 0 0 0 -.12-.97 4 4 0 0 0 -3.88-3.03h-3l-.03.12a4 4 0 0 1 3.03 3.88z"/><path d="m48 14v6a2.015 2.015 0 0 0 2 2 2.006 2.006 0 0 0 2-2v-8a4 4 0 0 0 -4-4l-.48.1a4.026 4.026 0 0 1 .48 1.9z"/></g><path d="m52 20v4a2.015 2.015 0 0 0 2 2 2.006 2.006 0 0 0 2-2v-8a4 4 0 0 0 -4-4z" fill="#acd949"/><path d="m44 12v6a2.015 2.015 0 0 0 2 2 2.006 2.006 0 0 0 2-2v-8a4 4 0 0 0 -4-4l-.12.03a3.906 3.906 0 0 1 .12.97z" fill="#acd949"/><path d="m36 17v8a2.006 2.006 0 0 0 2 2 2.015 2.015 0 0 0 2-2v-18a4 4 0 0 0 -3.03-3.88 3.906 3.906 0 0 0 -.97-.12h-.54a3.989 3.989 0 0 1 .54 2z" fill="#acd949"/><path d="m28 17v5a2.006 2.006 0 0 0 2 2 2.015 2.015 0 0 0 2-2v-21a4.01 4.01 0 0 0 -4 4z" fill="#8eb33c"/><path d="m20 12v10a2.006 2.006 0 0 0 2 2 2.015 2.015 0 0 0 2-2v-15a4 4 0 0 1 3.03-3.88l-.03-.12h-3a4 4 0 0 0 -3.88 3.03 3.906 3.906 0 0 0 -.12.97z" fill="#8eb33c"/><path d="m12 20a2.006 2.006 0 0 0 2 2 2.015 2.015 0 0 0 2-2v-10a3.992 3.992 0 0 1 .68-2.23l-.68.23a4 4 0 0 0 -4 4z" fill="#8eb33c"/><path d="m23.2 49.571-4.589-1.971a1.029 1.029 0 0 1 -.6-.762c-.1-.6-.475-.8-1.013-.849v2.011a1.976 1.976 0 0 1 -.152.758 3.03 3.03 0 0 0 .968.68l5.79 2.481a.985.985 0 0 0 .396.081h.519a5.713 5.713 0 0 1 -1.319-2.429z" fill="#5d241d"/><path d="m47 44a1.955 1.955 0 0 1 -.59 1.41 1.911 1.911 0 0 1 -.41.311v1.039a.815.815 0 0 1 -.008.12 1 1 0 0 1 -.551.776l-2.441 1.225v1.639c0 .162-.019.32-.032.48h.032a.994.994 0 0 0 .448-.106l2.888-1.45a2.873 2.873 0 0 0 .664-.472z" fill="#5d241d"/><path d="m43 39.73a2 2 0 0 1 -3-1.73v11.15a3 3 0 0 1 -1.66 2.68l-2.34 1.17v5l3-1.711v-1.683a3 3 0 0 1 1.336-2.5l.773-.515a2 2 0 0 0 .891-1.661v-5.93a1.994 1.994 0 0 1 1-1.723z" fill="#5d241d"/><path d="m26 48.76v-4.26a2.491 2.491 0 0 1 -1-2v-1.5a2.006 2.006 0 0 1 -2 2v2a2 2 0 0 1 2 2v2.394a3 3 0 0 0 1.336 2.5l.328.218a3 3 0 0 1 1.336 2.494v.537l2 .857v-4l-2.89-1.45a2 2 0 0 1 -1.11-1.79z" fill="#5d241d"/><path d="m35 60a2 2 0 0 1 -2-2v-10a2 2 0 0 1 2-2h1v-1.05a2.49 2.49 0 0 1 -2-2.45v-1.5a2.006 2.006 0 0 1 -2-2 2.006 2.006 0 0 1 -2 2v17l-1.71 1.71a1.009 1.009 0 0 0 -.29.7v1.59a1 1 0 0 0 1 1h8a1 1 0 0 0 1-1v-1.59a.991.991 0 0 0 -.1-.41z" fill="#593524"/></g></svg>